<svg xmlns="http://www.w3.org/2000/svg" viewBox="0 0 136.42 101.78"><defs><style>.cls-1{fill:#2ba5de;}</style></defs><g id="Layer_2" data-name="Layer 2"><g id="Layer_1-2" data-name="Layer 1"><path class="cls-1" d="M40.72,34.76V56.55a1.38,1.38,0,0,1-.49,1.06l-.83.7-4.67,4a1.37,1.37,0,0,1-1.8,0h0l-7.77-6.61L4.8,38.37.49,34.71a1.41,1.41,0,0,1,0-2.13l4.32-3.67L22.86,13.57a1.39,1.39,0,0,1,2.3,1.06v5.8a1.38,1.38,0,0,1-.49,1.06L11.62,32.58a1.4,1.4,0,0,0,0,2.12L25.16,46.21l5.48,4.66a1.39,1.39,0,0,0,2.29-1.06V32A1.39,1.39,0,0,1,35,30.8l5,2.73A1.42,1.42,0,0,1,40.72,34.76Z"/><path class="cls-1" d="M135.93,32.65a1.41,1.41,0,0,1,0,2.13l-4.32,3.66L110.85,56.09l-7.61,6.48-.76.63-5.56-4.73-1-.82a1.38,1.38,0,0,1-.49-1.06V36.26A1.4,1.4,0,0,0,93.4,35l-5.08,2.78L78.75,43l-10,5.48a1.37,1.37,0,0,1-1.33,0L57.38,43l-8.8-4.8A1.42,1.42,0,0,1,47.86,37V32.53a1.39,1.39,0,0,1,2.06-1.22l12.93,7.06,4.55,2.49a1.37,1.37,0,0,0,1.33,0l4.55-2.49,15-8.21,7.14-3.9,5.72-3.13a1.39,1.39,0,0,1,2.06,1.22V50.08a1.39,1.39,0,0,0,2.29,1.07l5.32-4.52,13.94-11.85a1.41,1.41,0,0,0,0-2.13L111.34,21.22a1.42,1.42,0,0,1-.49-1.06V14.35a1.39,1.39,0,0,1,2.3-1.06L131.61,29Z"/><path class="cls-1" d="M88.32,9.55V14a1.38,1.38,0,0,1-.73,1.22L68.73,25.56a1.37,1.37,0,0,1-1.33,0L47.86,14.88,42.78,12.1a1.39,1.39,0,0,0-2.06,1.22V23.93a1.39,1.39,0,0,1-2.06,1.22l-5-2.74a1.38,1.38,0,0,1-.73-1.22V1.41A1.39,1.39,0,0,1,35,.19l2.19,1.2,3.54,1.93L44,5.09l3.9,2.14L67.4,17.91a1.37,1.37,0,0,0,1.33,0L86.26,8.33A1.39,1.39,0,0,1,88.32,9.55Z"/><path class="cls-1" d="M103.24,1.4V5.87a1.38,1.38,0,0,1-.73,1.22L97.78,9.68h0l-.25.14A1.4,1.4,0,0,1,95.46,8.6V4.13a1.39,1.39,0,0,1,.72-1.22l2.9-1.58h0l2.1-1.15A1.4,1.4,0,0,1,103.24,1.4Z"/><path class="cls-1" d="M32.63,76.85l-6,2.3A9.63,9.63,0,0,0,17.4,73.4a10.3,10.3,0,0,0-7.73,3.13,11,11,0,0,0-3,8,11.23,11.23,0,0,0,3,8.1,10.1,10.1,0,0,0,7.63,3.08q7.09,0,9.62-6.12l6,2.35a16.48,16.48,0,0,1-6.14,7.22,17.31,17.31,0,0,1-9.5,2.57A16.71,16.71,0,0,1,5,97,16.84,16.84,0,0,1,.2,84.58,16.67,16.67,0,0,1,17.4,67.42a16.63,16.63,0,0,1,9.09,2.46A17.06,17.06,0,0,1,32.63,76.85Z"/><path class="cls-1" d="M53.56,101.78A17.19,17.19,0,0,1,41,97a16.77,16.77,0,0,1-4.92-12.37,16.45,16.45,0,0,1,5-12.28,17,17,0,0,1,12.51-4.88,17.2,17.2,0,0,1,12.56,4.83A16.44,16.44,0,0,1,71,84.58a16.65,16.65,0,0,1-5,12.33A16.93,16.93,0,0,1,53.56,101.78Zm0-6a10.54,10.54,0,0,0,7.91-3.13,10.92,10.92,0,0,0,3.08-8,10.84,10.84,0,0,0-3-8.1,10.71,10.71,0,0,0-8-3.08,10.78,10.78,0,0,0-8,3.13,10.9,10.9,0,0,0-3.08,8,11.07,11.07,0,0,0,3,8.1A10.87,10.87,0,0,0,53.56,95.76Z"/><path class="cls-1" d="M77.16,67.93h12.1q7.86,0,12.88,4.69a15.6,15.6,0,0,1,5.06,12,15.76,15.76,0,0,1-5.11,12,18.35,18.35,0,0,1-12.93,4.7h-12Zm6.35,27.32h5.7a11.67,11.67,0,0,0,8.33-2.94,11,11,0,0,0,0-15.5,11.45,11.45,0,0,0-8.28-3H83.51Z"/><path class="cls-1" d="M119.62,87.15v8.42h16.6v5.71h-23V67.93H136v5.65H119.62v8.19h15.45v5.38Z"/></g></g></svg>